<svg id="visual" viewBox="0 0 960 540" width="960" height="540" xmlns="http://www.w3.org/2000/svg" xmlns:xlink="http://www.w3.org/1999/xlink" version="1.1"><path d="M0 390L22.8 392C45.7 394 91.3 398 137 398C182.7 398 228.3 394 274 394.5C319.7 395 365.3 400 411.2 407.3C457 414.7 503 424.3 548.8 425.5C594.7 426.7 640.3 419.3 686 408.5C731.7 397.7 777.3 383.3 823 386.8C868.7 390.3 914.3 411.7 937.2 422.3L960 433L960 541L937.2 541C914.3 541 868.7 541 823 541C777.3 541 731.7 541 686 541C640.3 541 594.7 541 548.8 541C503 541 457 541 411.2 541C365.3 541 319.7 541 274 541C228.3 541 182.7 541 137 541C91.3 541 45.7 541 22.8 541L0 541Z" fill="#416452"></path><path d="M0 452L22.8 455.8C45.7 459.7 91.3 467.3 137 461C182.7 454.7 228.3 434.3 274 424.7C319.7 415 365.3 416 411.2 424.2C457 432.3 503 447.7 548.8 456C594.7 464.3 640.3 465.7 686 468.2C731.7 470.7 777.3 474.3 823 469.7C868.7 465 914.3 452 937.2 445.5L960 439L960 541L937.2 541C914.3 541 868.7 541 823 541C777.3 541 731.7 541 686 541C640.3 541 594.7 541 548.8 541C503 541 457 541 411.2 541C365.3 541 319.7 541 274 541C228.3 541 182.7 541 137 541C91.3 541 45.7 541 22.8 541L0 541Z" fill="#2d3f36"></path><path d="M0 505L22.8 502.7C45.7 500.3 91.3 495.7 137 491.2C182.7 486.7 228.3 482.3 274 479C319.7 475.7 365.3 473.3 411.2 476.5C457 479.7 503 488.3 548.8 494.8C594.7 501.3 640.3 505.7 686 501C731.7 496.3 777.3 482.7 823 481.3C868.7 480 914.3 491 937.2 496.5L960 502L960 541L937.2 541C914.3 541 868.7 541 823 541C777.3 541 731.7 541 686 541C640.3 541 594.7 541 548.8 541C503 541 457 541 411.2 541C365.3 541 319.7 541 274 541C228.3 541 182.7 541 137 541C91.3 541 45.7 541 22.8 541L0 541Z" fill="#1a1e1c"></path></svg>